<?xml version="1.0" standalone="no"?>
<!DOCTYPE svg PUBLIC "-//W3C//DTD SVG 20010904//EN"
 "http://www.w3.org/TR/2001/REC-SVG-20010904/DTD/svg10.dtd">
<svg version="1.0" xmlns="http://www.w3.org/2000/svg"
 width="32" height="32" viewBox="0 0 128.000000 128.000000"
 preserveAspectRatio="xMidYMid meet">

<g transform="translate(0.000000,128.000000) scale(0.100000,-0.100000)"
fill="#000000" stroke="none">
<path d="M191 1075 c-31 -36 -32 -38 -29 -123 l3 -87 30 0 30 0 3 71 c4 92 14
102 107 106 l70 3 0 30 0 30 -91 3 -91 3 -32 -36z"/>
<path d="M854 1096 c-3 -8 -4 -23 -2 -33 3 -15 15 -19 73 -21 93 -4 103 -14
107 -106 l3 -71 30 0 30 0 3 87 c3 84 2 87 -29 122 l-31 36 -89 0 c-69 0 -91
-3 -95 -14z"/>
<path d="M489 891 c-21 -22 -29 -39 -29 -65 0 -30 -4 -36 -21 -36 -11 0 -34
-13 -50 -29 l-29 -29 0 -157 c0 -93 4 -165 11 -177 20 -36 69 -48 207 -48 71
0 143 5 160 11 31 11 62 59 62 97 0 14 10 24 34 32 54 18 66 55 66 208 0 216
-6 222 -230 222 l-152 0 -29 -29z m361 -233 c0 -90 -7 -115 -31 -121 -18 -5
-19 1 -19 78 0 46 -3 90 -6 99 -5 13 1 16 25 16 l31 0 0 -72z m-221 -55 l123
-6 -4 -88 c-1 -48 -7 -91 -11 -96 -14 -13 -282 -16 -306 -3 -19 10 -21 20 -21
105 l0 95 48 0 c27 0 104 -3 171 -7z"/>
<path d="M167 414 c-4 -4 -7 -45 -7 -90 0 -79 2 -85 31 -119 l32 -36 91 3 91
3 0 30 0 30 -71 3 c-92 4 -102 14 -106 107 -3 67 -4 70 -28 73 -14 2 -29 0
-33 -4z"/>
<path d="M1027 414 c-4 -4 -7 -37 -7 -74 0 -87 -12 -98 -105 -102 l-70 -3 0
-30 0 -30 91 -3 91 -3 32 36 c31 36 32 38 29 123 -3 85 -4 87 -28 90 -14 2
-29 0 -33 -4z"/>
</g>
</svg>
